<!-- public/favicon.svg -->
<svg xmlns="http://www.w3.org/2000/svg" viewBox="-3 -6 48 28" preserveAspectRatio="xMidYMid meet">
  <path d="M11.211 13.3594 l-0.47852 0.61523 l-1.3867 6.0645 l-4.9219 0 l1.3574 -5.9082 c-0.078125 -0.24414 -0.16602 -0.50781 -0.25391 -0.77148 l-0.87891 0 c-0.9082 -2.6367 -1.9824 -5.3613 -2.7539 -7.9785 l5.5273 0 l1.1523 3.7012 c0.89844 -1.2305 1.8262 -2.4707 2.7246 -3.7012 l5.4004 0 l-6.3672 7.9785 l0.87891 0 z M14.45309375 13.6328 l-1.123 0 l4.5898 -8.1934 l4.873 0 l0.79102 8.1934 l1.0938 0 l0.61523 6.3574 l-5.0293 0 l-0.20508 -2.7441 l-2.7832 0 c-0.48828 0.9082 -0.94727 1.8262 -1.4355 2.7441 l-4.9414 0 z M19.931593749999998 13.837900000000001 l0 -0.20508 l-1.0645 0 l0.019531 -3.2422 l-1.3086 3.2422 l1.084 0 l-0.078125 0.20508 l1.3477 0 z M40.088296875 12.8418 c-0.078125 0.3125 -0.16602 0.625 -0.2832 0.94727 l1.0645 0 c-1.2402 3.877 -4.3945 6.6895 -8.7207 6.6895 c-4.4629 0 -6.2012 -2.8125 -5.6348 -6.6895 l-1.0352 0 c0.039063 -0.32227 0.087891 -0.63477 0.15625 -0.94727 c1.0352 -4.4629 4.2676 -7.6563 8.9648 -7.6563 c4.5996 0 6.4941 3.2227 5.4883 7.6563 z M35.800296875 13.789100000000001 l-1.0547 0 c0.097656 -0.32227 0.19531 -0.63477 0.26367 -0.9668 c1.2402 -5.3613 -3.0859 -5.2051 -4.2969 0.019531 c-0.068359 0.3418 -0.11719 0.6543 -0.16602 0.94727 l1.0547 0 c-0.50781 4.082 2.8223 3.9941 4.1992 0 z"/>
</svg>